<svg  viewBox="0 0 1024 1024" focusable="false" xmlns="http://www.w3.org/2000/svg">
  <path
    d="M259.2 0H896a64 64 0 0 1 64 64v748.608a64 64 0 0 1-64 64H259.2a64 64 0 0 1-64-64V64a64 64 0 0 1 64-64zM392 183.04V640h171.264c76.096 0 133.12-20.48 172.544-61.44 37.376-39.04 56.384-94.72 56.384-167.04 0-72.96-19.008-128.64-56.384-167.04-39.36-40.96-96.448-61.44-172.544-61.44H392zm76.8 64h80c58.432 0 101.056 12.8 128 39.04 26.24 25.6 39.296 67.84 39.296 125.44 0 56.32-13.12 97.92-39.36 124.8C649.856 562.56 607.232 576 548.8 576h-80V247.04zM64 384h75.968v568.512h580.096V1024H128a64 64 0 0 1-64-64V384z"></path>
</svg>
