<svg viewBox="0 0 1024 1024" xmlns="http://www.w3.org/2000/svg" focusable="false" ><path d="M874.666667 106.666667H149.333333c-23.466667 0-42.666667 19.2-42.666666 42.666666v725.333334c0 23.466667 19.2 42.666667 42.666666 42.666666h725.333334c23.466667 0 42.666667-19.2 42.666666-42.666666V149.333333c0-23.466667-19.2-42.666667-42.666666-42.666666z m-21.333334 746.666666H170.666667V170.666667h682.666666v682.666666z" ></path><path d="M266.666667 341.333333h102.4c12.8 36.266667 49.066667 64 89.6 64s76.8-27.733333 89.6-64h209.066666c17.066667 0 32-14.933333 32-32s-14.933333-32-32-32h-209.066666c-12.8-36.266667-49.066667-64-89.6-64s-76.8 27.733333-89.6 64h-102.4c-17.066667 0-32 14.933333-32 32s14.933333 32 32 32z m192-64c17.066667 0 32 14.933333 32 32s-14.933333 32-32 32-32-14.933333-32-32 14.933333-32 32-32zM266.666667 746.666667h38.4c12.8 36.266667 49.066667 64 89.6 64s76.8-27.733333 89.6-64h273.066666c17.066667 0 32-14.933333 32-32s-14.933333-32-32-32H484.266667c-12.8-36.266667-49.066667-64-89.6-64s-76.8 27.733333-89.6 64h-38.4c-17.066667 0-32 14.933333-32 32s14.933333 32 32 32z m128-64c17.066667 0 32 14.933333 32 32s-14.933333 32-32 32-32-14.933333-32-32 14.933333-32 32-32zM266.666667 554.666667h273.066666c12.8 36.266667 49.066667 64 89.6 64s76.8-27.733333 89.6-64h38.4c17.066667 0 32-14.933333 32-32s-14.933333-32-32-32h-38.4c-12.8-36.266667-49.066667-64-89.6-64s-76.8 27.733333-89.6 64H266.666667c-17.066667 0-32 14.933333-32 32s14.933333 32 32 32z m362.666666-64c17.066667 0 32 14.933333 32 32s-14.933333 32-32 32-32-14.933333-32-32 14.933333-32 32-32z" ></path></svg>
