<svg viewBox="0 0 1024 1024" focusable="false" xmlns="http://www.w3.org/2000/svg"><path d="M525.653333 563.2c-145.066667 0-264.533333-117.76-264.533333-264.533333S380.586667 34.133333 525.653333 34.133333s264.533333 117.76 264.533334 264.533334S672.426667 563.2 525.653333 563.2z m0-477.866667C409.6 85.333333 314.026667 180.906667 314.026667 298.666667S409.6 512 525.653333 512s213.333333-95.573333 213.333334-213.333333S643.413333 85.333333 525.653333 85.333333z" ></path><path d="M98.986667 989.866667c-13.653333 0-25.6-11.946667-25.6-25.6C73.386667 715.093333 276.48 512 525.653333 512c13.653333 0 25.6 11.946667 25.6 25.6s-11.946667 25.6-25.6 25.6c-221.866667 0-401.066667 180.906667-401.066666 401.066667 0 13.653333-11.946667 25.6-25.6 25.6z" ></path><path d="M925.013333 709.973333H535.893333c-13.653333 0-25.6-11.946667-25.6-25.6s11.946667-25.6 25.6-25.6h307.2L779.946667 614.4c-11.946667-8.533333-13.653333-23.893333-6.826667-35.84 8.533333-11.946667 23.893333-13.653333 35.84-6.826667l129.706667 90.453334c8.533333 6.826667 13.653333 18.773333 10.24 29.013333-3.413333 11.946667-13.653333 18.773333-23.893334 18.773333zM665.6 933.546667c-5.12 0-10.24-1.706667-15.36-5.12l-129.706667-90.453334c-8.533333-6.826667-11.946667-18.773333-8.533333-29.013333 3.413333-10.24 13.653333-17.066667 23.893333-17.066667h387.413334c13.653333 0 25.6 11.946667 25.6 25.6s-11.946667 25.6-25.6 25.6h-307.2l63.146666 44.373334c11.946667 8.533333 13.653333 23.893333 6.826667 35.84-3.413333 5.12-11.946667 10.24-20.48 10.24z" ></path></svg>
