<?xml version="1.0" encoding="utf-8"?>
<!-- Generator: Adobe Illustrator 19.1.0, SVG Export Plug-In . SVG Version: 6.00 Build 0)  -->
<svg version="1.1" id="Layer_1" xmlns="http://www.w3.org/2000/svg" xmlns:xlink="http://www.w3.org/1999/xlink" x="0px" y="0px"
	 viewBox="0 0 250 250" style="enable-background:new 0 0 250 250;" xml:space="preserve">
 <style type="text/css">.st0{fill:#DD0031;}
	.st1{fill:#C3002F;}
	.st2{fill:#FFFFFF;}</style>
<polygon class="st0" points="125,30 125,30 125,30 31.9,63.2 46.1,186.3 125,230 125,230 125,230 203.9,186.3 218.1,63.2  " />
<polygon class="st1" points="125,30 125,52.2 125,52.1 125,153.4 125,153.4 125,230 125,230 203.9,186.3 218.1,63.2 125,30  " />

<path class="st2" d="m123.179423,67.265331l-19.864992,20.028243c-1.714963,1.729057 -2.715359,4.034466 -2.715359,6.483963c0,2.449497 1.000395,4.754907 2.715359,6.483963c0,0 0,0 0,0l19.864992,20.172331c0.428741,0.432264 1.000395,0.576352 1.57205,0.576352s1.143309,-0.288176 1.57205,-0.576352l19.864992,-20.028243c3.57284,-3.602202 3.57284,-9.509813 0,-13.112015l-19.864992,-20.028243c-0.857482,-0.72044 -2.286618,-0.72044 -3.144099,0z"/>
<path class="st2" d="m115.462088,130.519997c0,-0.576352 -0.285827,-1.152705 -0.571654,-1.584969l-20.007906,-20.028243c-3.57284,-3.602202 -9.432298,-3.602202 -13.005139,0l-19.864992,20.028243c-0.428741,0.432264 -0.571654,1.008617 -0.571654,1.584969s0.285827,1.152705 0.571654,1.584969l19.864992,20.028243c1.714963,1.729057 4.001581,2.737673 6.431113,2.737673s4.716149,-1.008617 6.431113,-2.737673l20.007906,-20.028243c0.428741,-0.432264 0.714568,-1.008617 0.714568,-1.584969z" />
<path class="st2" d="m167.625557,108.906785c-3.57284,-3.602202 -9.432298,-3.602202 -13.005139,0l-19.864992,20.028243c-0.428741,0.432264 -0.571654,1.008617 -0.571654,1.584969s0.285827,1.152705 0.571654,1.584969l19.864992,20.028243c1.714963,1.729057 4.001581,2.737673 6.431113,2.737673c2.429531,0 4.716149,-1.008617 6.431113,-2.737673l19.864992,-20.028243c0.857482,-0.864528 0.857482,-2.161321 0,-3.02585l-19.722079,-20.172331z"/>
<path class="st2" d="m126.323522,140.606162c-0.857482,-0.864528 -2.143704,-0.864528 -3.001186,0l-20.007906,20.028243c-3.57284,3.602202 -3.57284,9.509813 0,13.112015l19.864992,20.028243c0.428741,0.432264 1.000395,0.576352 1.57205,0.576352s1.143309,-0.144088 1.57205,-0.576352l19.864992,-20.028243c3.57284,-3.602202 3.57284,-9.509813 0,-13.112015l-19.864992,-20.028243z"/>

</svg>