<svg width="188" height="203" xmlns="http://www.w3.org/2000/svg" xml:space="preserve" version="1.1">

 <g>
  <title>Layer 1</title>
  <polygon id="svg_1" fill="#DD0031" points="94,1 94,1 94,1 0.8999995589256287,34.20000076293945 15.099998474121094,157.3000030517578 94,201 94,201 94,201 172.89999389648438,157.3000030517578 187.10000610351562,34.20000076293945 " class="st0"/>
  <polygon id="svg_2" fill="#C3002F" points="94,2 94,24.200000762939453 94,24.099998474121094 94,125.39999389648438 94,125.39999389648438 94,202 94,202 172.89999389648438,158.3000030517578 187.10000610351562,35.20000076293945 94,2 " class="st1"/>
  <path id="svg_3" fill="#FFFFFF" d="m92.17942,39.26533l-19.86499,20.02824c-1.71496,1.72906 -2.71536,4.03447 -2.71536,6.48397c0,2.44949 1.0004,4.7549 2.71536,6.48396c0,0 0,0 0,0l19.86499,20.17233c0.42874,0.43227 1.0004,0.57635 1.57205,0.57635s1.14331,-0.28817 1.57205,-0.57635l19.86499,-20.02824c3.57285,-3.6022 3.57285,-9.50981 0,-13.11202l-19.86499,-20.02824c-0.85748,-0.72044 -2.28662,-0.72044 -3.1441,0z" class="st2"/>
  <path id="svg_4" fill="#FFFFFF" d="m84.46209,102.52c0,-0.57635 -0.28583,-1.15271 -0.57166,-1.58497l-20.0079,-20.02825c-3.57284,-3.6022 -9.4323,-3.6022 -13.00514,0l-19.86499,20.02825c-0.42874,0.43226 -0.57166,1.00861 -0.57166,1.58497s0.28583,1.1527 0.57166,1.58497l19.86499,20.02824c1.71496,1.72906 4.00158,2.73767 6.43111,2.73767s4.71615,-1.00861 6.43112,-2.73767l20.0079,-20.02824c0.42874,-0.43227 0.71457,-1.00862 0.71457,-1.58497z" class="st2"/>
  <path id="svg_5" fill="#FFFFFF" d="m136.62556,80.90678c-3.57284,-3.6022 -9.4323,-3.6022 -13.00514,0l-19.86499,20.02825c-0.42875,0.43226 -0.57166,1.00861 -0.57166,1.58497s0.28583,1.1527 0.57166,1.58497l19.86499,20.02824c1.71496,1.72906 4.00158,2.73767 6.43111,2.73767c2.42953,0 4.71615,-1.00861 6.43111,-2.73767l19.865,-20.02824c0.85748,-0.86453 0.85748,-2.16132 0,-3.02585l-19.72208,-20.17234z" class="st2"/>
  <path id="svg_6" fill="#FFFFFF" d="m95.32352,112.60616c-0.85748,-0.86453 -2.1437,-0.86453 -3.00118,0l-20.00791,20.02825c-3.57284,3.6022 -3.57284,9.50981 0,13.11201l19.86499,20.02824c0.42874,0.43227 1.0004,0.57636 1.57205,0.57636s1.14331,-0.14409 1.57205,-0.57636l19.86499,-20.02824c3.57284,-3.6022 3.57284,-9.50981 0,-13.11201l-19.86499,-20.02825z" class="st2"/>
 </g>
</svg>